<svg viewBox="0 0 64 64" xmlns="http://www.w3.org/2000/svg">
  <defs>
    <linearGradient id="bg" x1="0" y1="0" x2="1" y2="1">
      <stop offset="0%" stop-color="#1a1a1a"/>
      <stop offset="100%" stop-color="#0a0a0a"/>
    </linearGradient>
    <filter id="glow" x="-50%" y="-50%" width="200%" height="200%">
      <feGaussianBlur stdDeviation="1.2" result="b"/>
      <feMerge>
        <feMergeNode in="b"/>
        <feMergeNode in="SourceGraphic"/>
      </feMerge>
    </filter>
  </defs>
  <rect x="2" y="2" width="60" height="60" rx="14" fill="url(#bg)" stroke="#22c55e" stroke-width="1.5" stroke-opacity="0.4"/>
  <g filter="url(#glow)" stroke="#22c55e" stroke-width="3" stroke-linecap="round" stroke-linejoin="round" fill="none">
    <path d="M40 22 C40 18, 36 16, 32 16 C28 16, 24 18, 24 22 C24 26, 28 28, 32 28 C36 28, 40 30, 40 34 C40 38, 36 40, 32 40 C28 40, 24 38, 24 34"/>
    <line x1="32" y1="12" x2="32" y2="16"/>
    <line x1="32" y1="40" x2="32" y2="44"/>
  </g>
  <circle cx="50" cy="14" r="3" fill="#22c55e" filter="url(#glow)"/>
  <g stroke="#22c55e" stroke-width="1" stroke-opacity="0.5">
    <line x1="14" y1="50" x2="20" y2="50"/>
    <line x1="24" y1="50" x2="30" y2="50"/>
    <line x1="34" y1="50" x2="40" y2="50"/>
    <line x1="44" y1="50" x2="50" y2="50"/>
  </g>
</svg>
