<svg viewBox="0 0 64 64" xmlns="http://www.w3.org/2000/svg">
  <defs>
    <radialGradient id="flame" cx="50%" cy="60%" r="50%">
      <stop offset="0%" stop-color="#fbbf24"/>
      <stop offset="60%" stop-color="#f97316"/>
      <stop offset="100%" stop-color="#dc2626"/>
    </radialGradient>
    <filter id="g2" x="-50%" y="-50%" width="200%" height="200%">
      <feGaussianBlur stdDeviation="1.5" result="b"/>
      <feMerge><feMergeNode in="b"/><feMergeNode in="SourceGraphic"/></feMerge>
    </filter>
  </defs>
  <rect x="2" y="2" width="60" height="60" rx="14" fill="#0a0a0a" stroke="#f97316" stroke-width="1.5" stroke-opacity="0.4"/>
  <g filter="url(#g2)">
    <path d="M32 12 C28 20, 22 24, 22 34 C22 44, 27 52, 32 52 C37 52, 42 44, 42 34 C42 28, 38 26, 36 22 C34 26, 30 24, 32 12 Z"
          fill="url(#flame)" stroke="#fb923c" stroke-width="0.5"/>
    <path d="M32 26 C30 30, 28 32, 28 38 C28 44, 30 48, 32 48 C34 48, 36 44, 36 38 C36 34, 34 32, 32 26 Z"
          fill="#fef3c7" opacity="0.7"/>
  </g>
</svg>
