<svg viewBox="0 0 64 64" xmlns="http://www.w3.org/2000/svg">
  <defs>
    <filter id="g6" x="-50%" y="-50%" width="200%" height="200%">
      <feGaussianBlur stdDeviation="0.8" result="b"/>
      <feMerge><feMergeNode in="b"/><feMergeNode in="SourceGraphic"/></feMerge>
    </filter>
  </defs>
  <rect x="2" y="2" width="60" height="60" rx="14" fill="#0a0a0a" stroke="#06b6d4" stroke-width="1.5" stroke-opacity="0.4"/>
  <g filter="url(#g6)">
    <rect x="12" y="16" width="40" height="36" rx="3" fill="none" stroke="#06b6d4" stroke-width="2.5"/>
    <line x1="12" y1="24" x2="52" y2="24" stroke="#06b6d4" stroke-width="2.5"/>
    <line x1="22" y1="12" x2="22" y2="20" stroke="#06b6d4" stroke-width="2.5" stroke-linecap="round"/>
    <line x1="42" y1="12" x2="42" y2="20" stroke="#06b6d4" stroke-width="2.5" stroke-linecap="round"/>
    <g fill="#06b6d4">
      <rect x="18" y="30" width="3" height="3"/>
      <rect x="25" y="30" width="3" height="3"/>
      <rect x="32" y="30" width="3" height="3" opacity="0.6"/>
      <rect x="39" y="30" width="3" height="3" opacity="0.4"/>
      <rect x="18" y="37" width="3" height="3" opacity="0.7"/>
      <rect x="25" y="37" width="3" height="3"/>
      <rect x="32" y="37" width="3" height="3"/>
      <rect x="39" y="37" width="3" height="3" opacity="0.5"/>
      <rect x="18" y="44" width="3" height="3" opacity="0.4"/>
      <rect x="25" y="44" width="3" height="3" opacity="0.7"/>
      <rect x="32" y="44" width="3" height="3"/>
      <rect x="39" y="44" width="3" height="3"/>
    </g>
  </g>
</svg>
