<svg viewBox="0 0 128 128" xmlns="http://www.w3.org/2000/svg">
  <defs>
    <linearGradient id="v2bg" x1="0" y1="0" x2="1" y2="1">
      <stop offset="0%" stop-color="#1a1a1a"/>
      <stop offset="100%" stop-color="#050505"/>
    </linearGradient>
    <filter id="v2glow" x="-50%" y="-50%" width="200%" height="200%">
      <feGaussianBlur stdDeviation="2" result="b"/>
      <feMerge><feMergeNode in="b"/><feMergeNode in="SourceGraphic"/></feMerge>
    </filter>
  </defs>
  <rect width="128" height="128" rx="22" fill="url(#v2bg)"/>
  <!-- Shield outline only -->
  <path d="M64 16 L100 28 L100 66 C100 86, 84 102, 64 112 C44 102, 28 86, 28 66 L28 28 Z"
        fill="none" stroke="#22c55e" stroke-width="2.5" stroke-linejoin="round" filter="url(#v2glow)"/>
  <!-- Inner ghost shield -->
  <path d="M64 28 L90 36 L90 64 C90 80, 78 92, 64 100 C50 92, 38 80, 38 64 L38 36 Z"
        fill="none" stroke="#22c55e" stroke-width="1" stroke-opacity="0.25"/>
  <!-- Dollar sign -->
  <g filter="url(#v2glow)" stroke="#fbbf24" stroke-width="4.5" stroke-linecap="round" stroke-linejoin="round" fill="none">
    <path d="M76 52 C76 46, 70 42, 64 42 C58 42, 52 46, 52 52 C52 58, 58 60, 64 62 C70 64, 76 66, 76 72 C76 78, 70 82, 64 82 C58 82, 52 78, 52 72"/>
    <line x1="64" y1="36" x2="64" y2="42"/>
    <line x1="64" y1="82" x2="64" y2="88"/>
  </g>
</svg>
